<?xml version="1.0" encoding="UTF-8"?>
<svg viewBox="0 0 500 500" xmlns="http://www.w3.org/2000/svg">
 <path d="m3.896 162.02s107.14-10.714 157.79 0 132.46 30.194 163.63 30.194 81.817 4.87 119.8-6.818l37.986-11.688s-34.09 63.31-57.466 80.842c-5.844 1.948 0.974 0.974-1.948 0.974 11.688 21.428 36.038 37.013 47.726 52.597 7.792 7.792 6.818 10.714 6.818 9.74s-129.54 7.792-178.24-1.948c-77.922-20.454-84.74-30.194-180.19-31.168-69.155-2.922-102.27 15.584-102.27 15.584s43.83-65.259 50.648-71.103-60.388-69.154-64.284-67.206z" fill="#fff" fill-rule="evenodd" stroke="#000" stroke-width="3.75"/>
</svg>
